<svg viewBox="0 0 24 24" version="1.1" xmlns="http://www.w3.org/2000/svg" xmlns:xlink="http://www.w3.org/1999/xlink">
<path d="M17,12 C17,10.0333333 15.8666667,8.34444444 14.2222222,7.52222222 L14.2222222,9.97777778 L16.9444444,12.7 C16.9777778,12.4777778 17,12.2444444 17,12 L17,12 Z M19.7777778,12 C19.7777778,13.0444444 19.5555556,14.0222222 19.1777778,14.9333333 L20.8555556,16.6111111 C21.5888889,15.2333333 22,13.6666667 22,12 C22,7.24444444 18.6777778,3.26666667 14.2222222,2.25555556 L14.2222222,4.54444444 C17.4333333,5.5 19.7777778,8.47777778 19.7777778,12 L19.7777778,12 Z M3.41111111,2 L2,3.41111111 L7.25555556,8.66666667 L2,8.66666667 L2,15.3333333 L6.44444444,15.3333333 L12,20.8888889 L12,13.4111111 L16.7222222,18.1333333 C15.9777778,18.7111111 15.1444444,19.1666667 14.2222222,19.4444444 L14.2222222,21.7333333 C15.7555556,21.3888889 17.1444444,20.6777778 18.3222222,19.7222222 L20.5888889,22 L22,20.5888889 L12,10.5888889 L3.41111111,2 L3.41111111,2 Z M12,3.11111111 L9.67777778,5.43333333 L12,7.75555556 L12,3.11111111 L12,3.11111111 Z"></path>
</svg>
