<svg viewBox="0 0 24 24" version="1.1" xmlns="http://www.w3.org/2000/svg" xmlns:xlink="http://www.w3.org/1999/xlink">
<path d="M19.7777778,19.7777778 L4.22222222,19.7777778 L4.22222222,4.22222222 L12,4.22222222 L12,2 L4.22222222,2 C2.98888889,2 2,3 2,4.22222222 L2,19.7777778 C2,21 2.98888889,22 4.22222222,22 L19.7777778,22 C21,22 22,21 22,19.7777778 L22,12 L19.7777778,12 L19.7777778,19.7777778 L19.7777778,19.7777778 Z M14.2222222,2 L14.2222222,4.22222222 L18.2111111,4.22222222 L7.28888889,15.1444444 L8.85555556,16.7111111 L19.7777778,5.78888889 L19.7777778,9.77777778 L22,9.77777778 L22,2 L14.2222222,2 L14.2222222,2 Z"></path>
</svg>
