<svg viewBox="0 0 24 24" version="1.1" xmlns="http://www.w3.org/2000/svg" xmlns:xlink="http://www.w3.org/1999/xlink">
<path d="M19.7777778,11 L17.8888889,11 C17.8888889,11.8222222 17.7111111,12.5888889 17.4111111,13.2777778 L18.7777778,14.6444444 C19.4,13.5555556 19.7777778,12.3222222 19.7777778,11 L19.7777778,11 Z M15.3111111,11.1888889 C15.3111111,11.1222222 15.3333333,11.0666667 15.3333333,11 L15.3333333,4.33333333 C15.3333333,2.48888889 13.8444444,1 12,1 C10.1555556,1 8.66666667,2.48888889 8.66666667,4.33333333 L8.66666667,4.53333333 L15.3111111,11.1888889 L15.3111111,11.1888889 Z M3.41111111,2.11111111 L2,3.52222222 L8.67777778,10.2 L8.67777778,11 C8.67777778,12.8444444 10.1555556,14.3333333 12,14.3333333 C12.2444444,14.3333333 12.4888889,14.3 12.7222222,14.2444444 L14.5666667,16.0888889 C13.7777778,16.4555556 12.9,16.6666667 12,16.6666667 C8.93333333,16.6666667 6.11111111,14.3333333 6.11111111,11 L4.22222222,11 C4.22222222,14.7888889 7.24444444,17.9222222 10.8888889,18.4666667 L10.8888889,22.1111111 L13.1111111,22.1111111 L13.1111111,18.4666667 C14.1222222,18.3222222 15.0777778,17.9666667 15.9333333,17.4666667 L20.5888889,22.1111111 L22,20.7 L3.41111111,2.11111111 L3.41111111,2.11111111 Z"></path>
</svg>
