<svg viewBox="0 0 24 24" version="1.1" xmlns="http://www.w3.org/2000/svg" xmlns:xlink="http://www.w3.org/1999/xlink">
<path d="M8.7261655,13.9382052 C7.40282302,16.1033757 6.27582056,19.017268 5.60122611,20.9500008 C2.81529361,18.954102 1,15.689564 1,12.0010414 C1,5.92533399 5.92533399,1 12.0010414,1 C18.0767488,1 23.0020828,5.92533399 23.0020828,12.0010414 C23.0020828,15.689564 21.1867891,18.954102 18.4008567,20.9500008 C17.7350537,19.0424559 16.6285577,16.1791584 15.3275552,14.0232342 C16.5555266,13.0594018 17.3444043,11.561533 17.3444043,9.87941197 C17.3444043,6.97175201 14.9872802,4.61462788 12.0796202,4.61462788 C9.17196028,4.61462788 6.81483616,6.97175201 6.81483616,9.87941197 C6.81483616,11.5128435 7.55870627,12.9725349 8.7261655,13.9382052 Z M12.1581991,12.6296723 C13.7205239,12.6296723 14.9870383,11.3631579 14.9870383,9.8008331 C14.9870383,8.23850835 13.7205239,6.97199389 12.1581991,6.97199389 C10.5958744,6.97199389 9.3293599,8.23850835 9.3293599,9.8008331 C9.3293599,11.3631579 10.5958744,12.6296723 12.1581991,12.6296723 Z"></path>
</svg>
