<svg viewBox="0 0 24 24" version="1.1" xmlns="http://www.w3.org/2000/svg" xmlns:xlink="http://www.w3.org/1999/xlink">
<path d="M11.7368421,14.2631579 C13.5715789,14.2631579 15.0415789,12.7821053 15.0415789,10.9473684 L15.0526316,4.31578947 C15.0526316,2.48105263 13.5715789,1 11.7368421,1 C9.90210526,1 8.42105263,2.48105263 8.42105263,4.31578947 L8.42105263,10.9473684 C8.42105263,12.7821053 9.90210526,14.2631579 11.7368421,14.2631579 L11.7368421,14.2631579 Z M17.5947368,10.9473684 C17.5947368,14.2631579 14.7873684,16.5842105 11.7368421,16.5842105 C8.68631579,16.5842105 5.87894737,14.2631579 5.87894737,10.9473684 L4,10.9473684 C4,14.7163158 7.00631579,17.8331579 10.6315789,18.3747368 L10.6315789,22 L12.8421053,22 L12.8421053,18.3747368 C16.4673684,17.8442105 19.4736842,14.7273684 19.4736842,10.9473684 L17.5947368,10.9473684 L17.5947368,10.9473684 Z"></path>
</svg>
